<?xml version="1.0" standalone="no"?>
<!DOCTYPE svg PUBLIC "-//W3C//DTD SVG 20010904//EN"
 "http://www.w3.org/TR/2001/REC-SVG-20010904/DTD/svg10.dtd">
<svg version="1.0" xmlns="http://www.w3.org/2000/svg"
 width="527.000000pt" height="527.000000pt" viewBox="0 0 527.000000 527.000000"
 preserveAspectRatio="xMidYMid meet">
<metadata>
Created by potrace 1.11, written by Peter Selinger 2001-2013
</metadata>
<g transform="translate(0.000000,527.000000) scale(0.100000,-0.100000)"
fill="#000000" stroke="none">
<path d="M3255 4761 c-98 -24 -198 -76 -256 -134 -50 -50 -97 -128 -105 -176
-3 -14 -9 -42 -14 -61 -26 -99 -42 -268 -55 -568 -13 -317 -22 -474 -30 -562
-2 -19 -6 -69 -10 -110 -11 -127 -35 -197 -80 -226 -59 -38 -107 18 -385 444
-603 925 -829 1247 -920 1313 -37 27 -86 32 -116 13 -49 -33 -72 -100 -89
-269 -4 -33 -8 -76 -10 -95 -27 -242 -27 -1871 0 -2360 2 -41 6 -138 10 -215
5 -135 7 -167 20 -340 14 -190 25 -265 52 -345 107 -326 437 -484 736 -352 53
24 151 112 182 167 30 51 52 112 59 165 25 177 26 204 51 855 3 72 7 150 10
175 2 25 7 72 10 105 3 33 7 69 10 80 2 11 4 24 4 29 1 8 35 -31 73 -85 226
-315 238 -328 303 -329 74 0 115 53 211 278 31 72 60 132 63 132 12 0 123
-208 413 -780 175 -344 210 -410 302 -565 77 -132 149 -214 187 -216 64 -3 99
17 118 66 9 22 11 332 7 1230 -3 660 -7 1263 -10 1340 -10 283 -22 522 -31
655 -14 187 -19 233 -41 375 -23 147 -81 238 -194 306 -125 74 -316 98 -475
60z"/>
</g>
</svg>
